<svg xmlns="http://www.w3.org/2000/svg" xmlns:xlink="http://www.w3.org/1999/xlink" width="192" zoomAndPan="magnify" viewBox="0 0 144 89.04" height="108" preserveAspectRatio="xMidYMid meet" version="1.2"><defs><clipPath id="1d5df0ef75"><path d="M 0.769531 0 L 143.230469 0 L 143.230469 80.136719 L 0.769531 80.136719 Z M 0.769531 0 "/></clipPath></defs><g id="394039efb9"><g clip-rule="nonzero" clip-path="url(#1d5df0ef75)"><path style=" stroke:none;fill-rule:nonzero;fill:#ffffff;fill-opacity:1;" d="M 0.769531 0 L 143.230469 0 L 143.230469 80.136719 L 0.769531 80.136719 Z M 0.769531 0 "/><path style=" stroke:none;fill-rule:nonzero;fill:#ffffff;fill-opacity:1;" d="M 0.769531 0 L 143.230469 0 L 143.230469 80.136719 L 0.769531 80.136719 Z M 0.769531 0 "/></g><g style="fill:#31599b;fill-opacity:1;"><g transform="translate(10.291588, 65.896161)"><path style="stroke:none" d="M 1.0625 0.03125 C 0.925781 0.03125 0.800781 0.0078125 0.6875 -0.03125 C 0.570312 -0.0703125 0.472656 -0.132812 0.390625 -0.21875 C 0.316406 -0.3125 0.257812 -0.421875 0.21875 -0.546875 C 0.175781 -0.679688 0.15625 -0.835938 0.15625 -1.015625 C 0.15625 -1.191406 0.175781 -1.347656 0.21875 -1.484375 C 0.257812 -1.617188 0.316406 -1.734375 0.390625 -1.828125 C 0.472656 -1.921875 0.570312 -1.988281 0.6875 -2.03125 C 0.800781 -2.082031 0.925781 -2.109375 1.0625 -2.109375 C 1.257812 -2.109375 1.421875 -2.066406 1.546875 -1.984375 C 1.671875 -1.910156 1.769531 -1.789062 1.84375 -1.625 L 1.453125 -1.421875 C 1.421875 -1.503906 1.375 -1.570312 1.3125 -1.625 C 1.257812 -1.675781 1.175781 -1.703125 1.0625 -1.703125 C 0.925781 -1.703125 0.816406 -1.660156 0.734375 -1.578125 C 0.660156 -1.492188 0.625 -1.367188 0.625 -1.203125 L 0.625 -0.875 C 0.625 -0.707031 0.660156 -0.578125 0.734375 -0.484375 C 0.816406 -0.398438 0.925781 -0.359375 1.0625 -0.359375 C 1.175781 -0.359375 1.265625 -0.390625 1.328125 -0.453125 C 1.398438 -0.515625 1.453125 -0.585938 1.484375 -0.671875 L 1.84375 -0.453125 C 1.769531 -0.296875 1.671875 -0.175781 1.546875 -0.09375 C 1.421875 -0.0078125 1.257812 0.03125 1.0625 0.03125 Z M 1.0625 0.03125 "/></g></g><g style="fill:#31599b;fill-opacity:1;"><g transform="translate(12.202978, 65.896161)"><path style="stroke:none" d="M 0.90625 0.03125 C 0.71875 0.03125 0.5625 0 0.4375 -0.0625 C 0.3125 -0.125 0.203125 -0.203125 0.109375 -0.296875 L 0.40625 -0.59375 C 0.550781 -0.4375 0.722656 -0.359375 0.921875 -0.359375 C 1.035156 -0.359375 1.117188 -0.378906 1.171875 -0.421875 C 1.222656 -0.472656 1.25 -0.535156 1.25 -0.609375 C 1.25 -0.671875 1.234375 -0.71875 1.203125 -0.75 C 1.171875 -0.789062 1.109375 -0.816406 1.015625 -0.828125 L 0.8125 -0.859375 C 0.59375 -0.890625 0.429688 -0.957031 0.328125 -1.0625 C 0.222656 -1.164062 0.171875 -1.304688 0.171875 -1.484375 C 0.171875 -1.578125 0.1875 -1.660156 0.21875 -1.734375 C 0.257812 -1.804688 0.3125 -1.867188 0.375 -1.921875 C 0.445312 -1.984375 0.53125 -2.03125 0.625 -2.0625 C 0.71875 -2.09375 0.828125 -2.109375 0.953125 -2.109375 C 1.109375 -2.109375 1.242188 -2.082031 1.359375 -2.03125 C 1.484375 -1.976562 1.585938 -1.90625 1.671875 -1.8125 L 1.375 -1.515625 C 1.320312 -1.566406 1.257812 -1.609375 1.1875 -1.640625 C 1.125 -1.679688 1.035156 -1.703125 0.921875 -1.703125 C 0.828125 -1.703125 0.753906 -1.6875 0.703125 -1.65625 C 0.648438 -1.625 0.625 -1.578125 0.625 -1.515625 C 0.625 -1.441406 0.644531 -1.390625 0.6875 -1.359375 C 0.726562 -1.328125 0.789062 -1.300781 0.875 -1.28125 L 1.078125 -1.25 C 1.285156 -1.21875 1.441406 -1.148438 1.546875 -1.046875 C 1.648438 -0.953125 1.703125 -0.816406 1.703125 -0.640625 C 1.703125 -0.535156 1.679688 -0.441406 1.640625 -0.359375 C 1.609375 -0.273438 1.554688 -0.203125 1.484375 -0.140625 C 1.421875 -0.0859375 1.335938 -0.046875 1.234375 -0.015625 C 1.140625 0.015625 1.03125 0.03125 0.90625 0.03125 Z M 0.90625 0.03125 "/></g></g><g style="fill:#31599b;fill-opacity:1;"><g transform="translate(14.034232, 65.896161)"><path style="stroke:none" d="M 0.6875 0 L 0.234375 0 L 0.234375 -2.078125 L 1.21875 -2.078125 C 1.3125 -2.078125 1.394531 -2.0625 1.46875 -2.03125 C 1.539062 -2 1.601562 -1.953125 1.65625 -1.890625 C 1.71875 -1.828125 1.765625 -1.753906 1.796875 -1.671875 C 1.828125 -1.597656 1.84375 -1.507812 1.84375 -1.40625 C 1.84375 -1.269531 1.8125 -1.148438 1.75 -1.046875 C 1.6875 -0.941406 1.585938 -0.863281 1.453125 -0.8125 L 1.875 0 L 1.359375 0 L 1 -0.765625 L 0.6875 -0.765625 Z M 1.15625 -1.140625 C 1.21875 -1.140625 1.269531 -1.15625 1.3125 -1.1875 C 1.351562 -1.226562 1.375 -1.28125 1.375 -1.34375 L 1.375 -1.46875 C 1.375 -1.539062 1.351562 -1.59375 1.3125 -1.625 C 1.269531 -1.664062 1.21875 -1.6875 1.15625 -1.6875 L 0.6875 -1.6875 L 0.6875 -1.140625 Z M 1.15625 -1.140625 "/></g></g><g style="fill:#31599b;fill-opacity:1;"><g transform="translate(16.013886, 65.896161)"><path style="stroke:none" d=""/></g></g><g style="fill:#31599b;fill-opacity:1;"><g transform="translate(16.693558, 65.896161)"><path style="stroke:none" d="M 1.5 0 L 1.359375 -0.5 L 0.671875 -0.5 L 0.515625 0 L 0.0625 0 L 0.75 -2.078125 L 1.296875 -2.078125 L 1.96875 0 Z M 1.015625 -1.65625 L 1 -1.65625 L 0.765625 -0.875 L 1.25 -0.875 Z M 1.015625 -1.65625 "/></g></g><g style="fill:#31599b;fill-opacity:1;"><g transform="translate(18.70586, 65.896161)"><path style="stroke:none" d="M 0.859375 -0.984375 L 0.65625 -1.390625 L 0.65625 0 L 0.234375 0 L 0.234375 -2.078125 L 0.71875 -2.078125 L 1.28125 -1.09375 L 1.484375 -0.671875 L 1.5 -0.671875 L 1.5 -2.078125 L 1.921875 -2.078125 L 1.921875 0 L 1.421875 0 Z M 0.859375 -0.984375 "/></g></g><g style="fill:#31599b;fill-opacity:1;"><g transform="translate(20.833914, 65.896161)"><path style="stroke:none" d="M 0.234375 -2.078125 L 1.015625 -2.078125 C 1.148438 -2.078125 1.269531 -2.050781 1.375 -2 C 1.488281 -1.957031 1.585938 -1.894531 1.671875 -1.8125 C 1.753906 -1.726562 1.816406 -1.617188 1.859375 -1.484375 C 1.898438 -1.359375 1.921875 -1.207031 1.921875 -1.03125 C 1.921875 -0.863281 1.898438 -0.710938 1.859375 -0.578125 C 1.816406 -0.453125 1.753906 -0.34375 1.671875 -0.25 C 1.585938 -0.164062 1.488281 -0.101562 1.375 -0.0625 C 1.269531 -0.0195312 1.148438 0 1.015625 0 L 0.234375 0 Z M 1.015625 -0.40625 C 1.148438 -0.40625 1.253906 -0.441406 1.328125 -0.515625 C 1.398438 -0.585938 1.4375 -0.707031 1.4375 -0.875 L 1.4375 -1.203125 C 1.4375 -1.367188 1.398438 -1.488281 1.328125 -1.5625 C 1.253906 -1.632812 1.148438 -1.671875 1.015625 -1.671875 L 0.6875 -1.671875 L 0.6875 -0.40625 Z M 1.015625 -0.40625 "/></g></g><g style="fill:#31599b;fill-opacity:1;"><g transform="translate(22.881832, 65.896161)"><path style="stroke:none" d=""/></g></g><g style="fill:#31599b;fill-opacity:1;"><g transform="translate(23.561503, 65.896161)"><path style="stroke:none" d="M 0.953125 -0.90625 L 0.6875 -0.578125 L 0.6875 0 L 0.234375 0 L 0.234375 -2.078125 L 0.6875 -2.078125 L 0.6875 -1.09375 L 0.703125 -1.09375 L 0.984375 -1.484375 L 1.453125 -2.078125 L 1.96875 -2.078125 L 1.265625 -1.21875 L 2.03125 0 L 1.5 0 Z M 0.953125 -0.90625 "/></g></g><g style="fill:#31599b;fill-opacity:1;"><g transform="translate(25.606454, 65.896161)"><path style="stroke:none" d="M 0.859375 -0.984375 L 0.65625 -1.390625 L 0.65625 0 L 0.234375 0 L 0.234375 -2.078125 L 0.71875 -2.078125 L 1.28125 -1.09375 L 1.484375 -0.671875 L 1.5 -0.671875 L 1.5 -2.078125 L 1.921875 -2.078125 L 1.921875 0 L 1.421875 0 Z M 0.859375 -0.984375 "/></g></g><g style="fill:#31599b;fill-opacity:1;"><g transform="translate(27.734508, 65.896161)"><path style="stroke:none" d="M 1.0625 0.03125 C 0.925781 0.03125 0.800781 0.0078125 0.6875 -0.03125 C 0.570312 -0.0703125 0.472656 -0.140625 0.390625 -0.234375 C 0.316406 -0.328125 0.257812 -0.4375 0.21875 -0.5625 C 0.175781 -0.695312 0.15625 -0.851562 0.15625 -1.03125 C 0.15625 -1.207031 0.175781 -1.363281 0.21875 -1.5 C 0.257812 -1.632812 0.316406 -1.742188 0.390625 -1.828125 C 0.472656 -1.921875 0.570312 -1.988281 0.6875 -2.03125 C 0.800781 -2.082031 0.925781 -2.109375 1.0625 -2.109375 C 1.195312 -2.109375 1.320312 -2.082031 1.4375 -2.03125 C 1.550781 -1.988281 1.644531 -1.921875 1.71875 -1.828125 C 1.800781 -1.742188 1.863281 -1.632812 1.90625 -1.5 C 1.945312 -1.363281 1.96875 -1.207031 1.96875 -1.03125 C 1.96875 -0.851562 1.945312 -0.695312 1.90625 -0.5625 C 1.863281 -0.4375 1.800781 -0.328125 1.71875 -0.234375 C 1.644531 -0.140625 1.550781 -0.0703125 1.4375 -0.03125 C 1.320312 0.0078125 1.195312 0.03125 1.0625 0.03125 Z M 1.0625 -0.359375 C 1.195312 -0.359375 1.300781 -0.398438 1.375 -0.484375 C 1.457031 -0.578125 1.5 -0.707031 1.5 -0.875 L 1.5 -1.1875 C 1.5 -1.351562 1.457031 -1.476562 1.375 -1.5625 C 1.300781 -1.65625 1.195312 -1.703125 1.0625 -1.703125 C 0.925781 -1.703125 0.816406 -1.65625 0.734375 -1.5625 C 0.660156 -1.476562 0.625 -1.351562 0.625 -1.1875 L 0.625 -0.875 C 0.625 -0.707031 0.660156 -0.578125 0.734375 -0.484375 C 0.816406 -0.398438 0.925781 -0.359375 1.0625 -0.359375 Z M 1.0625 -0.359375 "/></g></g><g style="fill:#31599b;fill-opacity:1;"><g transform="translate(29.832882, 65.896161)"><path style="stroke:none" d="M 0.5625 0 L 0.09375 -2.078125 L 0.53125 -2.078125 L 0.734375 -1.078125 L 0.84375 -0.5 L 0.984375 -1.078125 L 1.203125 -2.078125 L 1.703125 -2.078125 L 1.9375 -1.078125 L 2.0625 -0.5 L 2.171875 -1.078125 L 2.375 -2.078125 L 2.796875 -2.078125 L 2.328125 0 L 1.8125 0 L 1.546875 -1.125 L 1.453125 -1.578125 L 1.4375 -1.578125 L 1.328125 -1.125 L 1.078125 0 Z M 0.5625 0 "/></g></g><g style="fill:#31599b;fill-opacity:1;"><g transform="translate(32.699968, 65.896161)"><path style="stroke:none" d="M 0.234375 0 L 0.234375 -2.078125 L 0.6875 -2.078125 L 0.6875 -0.40625 L 1.46875 -0.40625 L 1.46875 0 Z M 0.234375 0 "/></g></g><g style="fill:#31599b;fill-opacity:1;"><g transform="translate(34.252231, 65.896161)"><path style="stroke:none" d="M 0.234375 0 L 0.234375 -2.078125 L 1.640625 -2.078125 L 1.640625 -1.671875 L 0.6875 -1.671875 L 0.6875 -1.25 L 1.5 -1.25 L 1.5 -0.84375 L 0.6875 -0.84375 L 0.6875 -0.40625 L 1.640625 -0.40625 L 1.640625 0 Z M 0.234375 0 "/></g></g><g style="fill:#31599b;fill-opacity:1;"><g transform="translate(36.033029, 65.896161)"><path style="stroke:none" d="M 0.234375 -2.078125 L 1.015625 -2.078125 C 1.148438 -2.078125 1.269531 -2.050781 1.375 -2 C 1.488281 -1.957031 1.585938 -1.894531 1.671875 -1.8125 C 1.753906 -1.726562 1.816406 -1.617188 1.859375 -1.484375 C 1.898438 -1.359375 1.921875 -1.207031 1.921875 -1.03125 C 1.921875 -0.863281 1.898438 -0.710938 1.859375 -0.578125 C 1.816406 -0.453125 1.753906 -0.34375 1.671875 -0.25 C 1.585938 -0.164062 1.488281 -0.101562 1.375 -0.0625 C 1.269531 -0.0195312 1.148438 0 1.015625 0 L 0.234375 0 Z M 1.015625 -0.40625 C 1.148438 -0.40625 1.253906 -0.441406 1.328125 -0.515625 C 1.398438 -0.585938 1.4375 -0.707031 1.4375 -0.875 L 1.4375 -1.203125 C 1.4375 -1.367188 1.398438 -1.488281 1.328125 -1.5625 C 1.253906 -1.632812 1.148438 -1.671875 1.015625 -1.671875 L 0.6875 -1.671875 L 0.6875 -0.40625 Z M 1.015625 -0.40625 "/></g></g><g style="fill:#31599b;fill-opacity:1;"><g transform="translate(38.080947, 65.896161)"><path style="stroke:none" d="M 1.546875 -0.328125 L 1.53125 -0.328125 C 1.507812 -0.222656 1.453125 -0.132812 1.359375 -0.0625 C 1.273438 0 1.15625 0.03125 1 0.03125 C 0.875 0.03125 0.757812 0.0078125 0.65625 -0.03125 C 0.5625 -0.0703125 0.472656 -0.140625 0.390625 -0.234375 C 0.316406 -0.328125 0.257812 -0.4375 0.21875 -0.5625 C 0.175781 -0.695312 0.15625 -0.851562 0.15625 -1.03125 C 0.15625 -1.195312 0.175781 -1.347656 0.21875 -1.484375 C 0.257812 -1.617188 0.320312 -1.734375 0.40625 -1.828125 C 0.488281 -1.921875 0.585938 -1.988281 0.703125 -2.03125 C 0.816406 -2.082031 0.945312 -2.109375 1.09375 -2.109375 C 1.269531 -2.109375 1.425781 -2.066406 1.5625 -1.984375 C 1.695312 -1.910156 1.804688 -1.789062 1.890625 -1.625 L 1.515625 -1.421875 C 1.484375 -1.492188 1.429688 -1.554688 1.359375 -1.609375 C 1.296875 -1.671875 1.207031 -1.703125 1.09375 -1.703125 C 0.945312 -1.703125 0.832031 -1.660156 0.75 -1.578125 C 0.664062 -1.503906 0.625 -1.378906 0.625 -1.203125 L 0.625 -0.875 C 0.625 -0.695312 0.664062 -0.566406 0.75 -0.484375 C 0.832031 -0.398438 0.945312 -0.359375 1.09375 -0.359375 C 1.144531 -0.359375 1.191406 -0.363281 1.234375 -0.375 C 1.285156 -0.394531 1.332031 -0.414062 1.375 -0.4375 C 1.414062 -0.46875 1.445312 -0.5 1.46875 -0.53125 C 1.488281 -0.570312 1.5 -0.617188 1.5 -0.671875 L 1.5 -0.78125 L 1.109375 -0.78125 L 1.109375 -1.15625 L 1.921875 -1.15625 L 1.921875 0 L 1.546875 0 Z M 1.546875 -0.328125 "/></g></g><g style="fill:#31599b;fill-opacity:1;"><g transform="translate(40.194161, 65.896161)"><path style="stroke:none" d="M 0.234375 0 L 0.234375 -2.078125 L 1.640625 -2.078125 L 1.640625 -1.671875 L 0.6875 -1.671875 L 0.6875 -1.25 L 1.5 -1.25 L 1.5 -0.84375 L 0.6875 -0.84375 L 0.6875 -0.40625 L 1.640625 -0.40625 L 1.640625 0 Z M 0.234375 0 "/></g></g><g style="fill:#31599b;fill-opacity:1;"><g transform="translate(41.974959, 65.896161)"><path style="stroke:none" d=""/></g></g><g style="fill:#31599b;fill-opacity:1;"><g transform="translate(42.654631, 65.896161)"><path style="stroke:none" d="M 0.234375 0 L 0.234375 -2.078125 L 1.203125 -2.078125 C 1.304688 -2.078125 1.394531 -2.054688 1.46875 -2.015625 C 1.539062 -1.984375 1.601562 -1.9375 1.65625 -1.875 C 1.71875 -1.820312 1.765625 -1.753906 1.796875 -1.671875 C 1.828125 -1.597656 1.84375 -1.507812 1.84375 -1.40625 C 1.84375 -1.3125 1.828125 -1.222656 1.796875 -1.140625 C 1.765625 -1.054688 1.71875 -0.984375 1.65625 -0.921875 C 1.601562 -0.867188 1.539062 -0.828125 1.46875 -0.796875 C 1.394531 -0.765625 1.304688 -0.75 1.203125 -0.75 L 0.6875 -0.75 L 0.6875 0 Z M 0.6875 -1.140625 L 1.15625 -1.140625 C 1.21875 -1.140625 1.269531 -1.15625 1.3125 -1.1875 C 1.351562 -1.226562 1.375 -1.28125 1.375 -1.34375 L 1.375 -1.46875 C 1.375 -1.539062 1.351562 -1.59375 1.3125 -1.625 C 1.269531 -1.664062 1.21875 -1.6875 1.15625 -1.6875 L 0.6875 -1.6875 Z M 0.6875 -1.140625 "/></g></g><g style="fill:#31599b;fill-opacity:1;"><g transform="translate(44.580862, 65.896161)"><path style="stroke:none" d="M 1.5 0 L 1.359375 -0.5 L 0.671875 -0.5 L 0.515625 0 L 0.0625 0 L 0.75 -2.078125 L 1.296875 -2.078125 L 1.96875 0 Z M 1.015625 -1.65625 L 1 -1.65625 L 0.765625 -0.875 L 1.25 -0.875 Z M 1.015625 -1.65625 "/></g></g><g style="fill:#31599b;fill-opacity:1;"><g transform="translate(46.593164, 65.896161)"><path style="stroke:none" d="M 0.6875 0 L 0.234375 0 L 0.234375 -2.078125 L 1.21875 -2.078125 C 1.3125 -2.078125 1.394531 -2.0625 1.46875 -2.03125 C 1.539062 -2 1.601562 -1.953125 1.65625 -1.890625 C 1.71875 -1.828125 1.765625 -1.753906 1.796875 -1.671875 C 1.828125 -1.597656 1.84375 -1.507812 1.84375 -1.40625 C 1.84375 -1.269531 1.8125 -1.148438 1.75 -1.046875 C 1.6875 -0.941406 1.585938 -0.863281 1.453125 -0.8125 L 1.875 0 L 1.359375 0 L 1 -0.765625 L 0.6875 -0.765625 Z M 1.15625 -1.140625 C 1.21875 -1.140625 1.269531 -1.15625 1.3125 -1.1875 C 1.351562 -1.226562 1.375 -1.28125 1.375 -1.34375 L 1.375 -1.46875 C 1.375 -1.539062 1.351562 -1.59375 1.3125 -1.625 C 1.269531 -1.664062 1.21875 -1.6875 1.15625 -1.6875 L 0.6875 -1.6875 L 0.6875 -1.140625 Z M 1.15625 -1.140625 "/></g></g><g style="fill:#31599b;fill-opacity:1;"><g transform="translate(48.572817, 65.896161)"><path style="stroke:none" d="M 1.09375 -1.671875 L 1.09375 0 L 0.640625 0 L 0.640625 -1.671875 L 0.078125 -1.671875 L 0.078125 -2.078125 L 1.65625 -2.078125 L 1.65625 -1.671875 Z M 1.09375 -1.671875 "/></g></g><g style="fill:#31599b;fill-opacity:1;"><g transform="translate(50.285354, 65.896161)"><path style="stroke:none" d="M 0.859375 -0.984375 L 0.65625 -1.390625 L 0.65625 0 L 0.234375 0 L 0.234375 -2.078125 L 0.71875 -2.078125 L 1.28125 -1.09375 L 1.484375 -0.671875 L 1.5 -0.671875 L 1.5 -2.078125 L 1.921875 -2.078125 L 1.921875 0 L 1.421875 0 Z M 0.859375 -0.984375 "/></g></g><g style="fill:#31599b;fill-opacity:1;"><g transform="translate(52.413409, 65.896161)"><path style="stroke:none" d="M 0.234375 0 L 0.234375 -2.078125 L 1.640625 -2.078125 L 1.640625 -1.671875 L 0.6875 -1.671875 L 0.6875 -1.25 L 1.5 -1.25 L 1.5 -0.84375 L 0.6875 -0.84375 L 0.6875 -0.40625 L 1.640625 -0.40625 L 1.640625 0 Z M 0.234375 0 "/></g></g><g style="fill:#31599b;fill-opacity:1;"><g transform="translate(54.194205, 65.896161)"><path style="stroke:none" d="M 0.6875 0 L 0.234375 0 L 0.234375 -2.078125 L 1.21875 -2.078125 C 1.3125 -2.078125 1.394531 -2.0625 1.46875 -2.03125 C 1.539062 -2 1.601562 -1.953125 1.65625 -1.890625 C 1.71875 -1.828125 1.765625 -1.753906 1.796875 -1.671875 C 1.828125 -1.597656 1.84375 -1.507812 1.84375 -1.40625 C 1.84375 -1.269531 1.8125 -1.148438 1.75 -1.046875 C 1.6875 -0.941406 1.585938 -0.863281 1.453125 -0.8125 L 1.875 0 L 1.359375 0 L 1 -0.765625 L 0.6875 -0.765625 Z M 1.15625 -1.140625 C 1.21875 -1.140625 1.269531 -1.15625 1.3125 -1.1875 C 1.351562 -1.226562 1.375 -1.28125 1.375 -1.34375 L 1.375 -1.46875 C 1.375 -1.539062 1.351562 -1.59375 1.3125 -1.625 C 1.269531 -1.664062 1.21875 -1.6875 1.15625 -1.6875 L 0.6875 -1.6875 L 0.6875 -1.140625 Z M 1.15625 -1.140625 "/></g></g><g style="fill:#31599b;fill-opacity:1;"><g transform="translate(56.17386, 65.896161)"><path style="stroke:none" d="M 0.90625 0.03125 C 0.71875 0.03125 0.5625 0 0.4375 -0.0625 C 0.3125 -0.125 0.203125 -0.203125 0.109375 -0.296875 L 0.40625 -0.59375 C 0.550781 -0.4375 0.722656 -0.359375 0.921875 -0.359375 C 1.035156 -0.359375 1.117188 -0.378906 1.171875 -0.421875 C 1.222656 -0.472656 1.25 -0.535156 1.25 -0.609375 C 1.25 -0.671875 1.234375 -0.71875 1.203125 -0.75 C 1.171875 -0.789062 1.109375 -0.816406 1.015625 -0.828125 L 0.8125 -0.859375 C 0.59375 -0.890625 0.429688 -0.957031 0.328125 -1.0625 C 0.222656 -1.164062 0.171875 -1.304688 0.171875 -1.484375 C 0.171875 -1.578125 0.1875 -1.660156 0.21875 -1.734375 C 0.257812 -1.804688 0.3125 -1.867188 0.375 -1.921875 C 0.445312 -1.984375 0.53125 -2.03125 0.625 -2.0625 C 0.71875 -2.09375 0.828125 -2.109375 0.953125 -2.109375 C 1.109375 -2.109375 1.242188 -2.082031 1.359375 -2.03125 C 1.484375 -1.976562 1.585938 -1.90625 1.671875 -1.8125 L 1.375 -1.515625 C 1.320312 -1.566406 1.257812 -1.609375 1.1875 -1.640625 C 1.125 -1.679688 1.035156 -1.703125 0.921875 -1.703125 C 0.828125 -1.703125 0.753906 -1.6875 0.703125 -1.65625 C 0.648438 -1.625 0.625 -1.578125 0.625 -1.515625 C 0.625 -1.441406 0.644531 -1.390625 0.6875 -1.359375 C 0.726562 -1.328125 0.789062 -1.300781 0.875 -1.28125 L 1.078125 -1.25 C 1.285156 -1.21875 1.441406 -1.148438 1.546875 -1.046875 C 1.648438 -0.953125 1.703125 -0.816406 1.703125 -0.640625 C 1.703125 -0.535156 1.679688 -0.441406 1.640625 -0.359375 C 1.609375 -0.273438 1.554688 -0.203125 1.484375 -0.140625 C 1.421875 -0.0859375 1.335938 -0.046875 1.234375 -0.015625 C 1.140625 0.015625 1.03125 0.03125 0.90625 0.03125 Z M 0.90625 0.03125 "/></g></g></g></svg>